<svg width="99" height="99" viewBox="0 0 99 99" fill="none" xmlns="http://www.w3.org/2000/svg">
<circle cx="49.5" cy="49.5001" r="46" fill="#2378C9" stroke="#67A9E9" stroke-width="7"/>
<g clip-path="url(#clip0_1_110)">
<path d="M68.8785 34.1816H70.3616C70.879 34.1816 71.2985 33.762 71.2985 33.2447C71.2985 32.7273 70.879 32.3078 70.3616 32.3078H66.8014C66.2841 32.3078 65.8646 32.7273 65.8646 33.2447V36.8048C65.8646 37.3222 66.2841 37.7417 66.8014 37.7417C67.3188 37.7417 67.7383 37.3222 67.7383 36.8048V35.774C70.581 39.5797 72.1262 44.1973 72.1262 49C72.1262 61.2005 62.2005 71.1262 50 71.1262C37.7995 71.1262 27.8738 61.2005 27.8738 49C27.8738 36.7995 37.7995 26.8738 50 26.8738C50.9023 26.8738 51.8104 26.9286 52.6994 27.0366C53.2123 27.0986 53.6801 26.7333 53.7425 26.2196C53.805 25.706 53.4392 25.2389 52.9255 25.1765C51.9618 25.0594 50.9776 25 50 25C43.5894 25 37.5624 27.4964 33.0294 32.0294C28.4964 36.5624 26 42.5894 26 49C26 55.4106 28.4964 61.4376 33.0294 65.9706C37.5624 70.5036 43.5894 73 50 73C56.4106 73 62.4376 70.5036 66.9706 65.9706C71.5036 61.4376 74 55.4106 74 49C74 43.5903 72.1927 38.397 68.8785 34.1816Z" fill="white"/>
<path d="M36.1626 39.1482C35.7253 38.8714 35.1466 39.0016 34.8698 39.4386C32.731 42.8166 31.7841 46.8792 32.2038 50.8779C32.6296 54.9359 34.456 58.7627 37.3467 61.6535C40.8352 65.142 45.4176 66.8862 50.0001 66.8862C54.5826 66.8862 59.1649 65.142 62.6535 61.6535C69.6306 54.6764 69.6306 43.3238 62.6535 36.3468C59.7672 33.4606 55.9467 31.6348 51.8954 31.2057C47.9041 30.7827 43.846 31.7221 40.4693 33.8505C40.0315 34.1264 39.9005 34.7049 40.1763 35.1426C40.4522 35.5804 41.0307 35.7115 41.4684 35.4357C47.8334 31.4239 56 32.3433 61.3284 37.6717C67.5749 43.9182 67.5749 54.0819 61.3284 60.3284C55.082 66.575 44.9181 66.575 38.6717 60.3284C33.4169 55.0736 32.4838 46.7098 36.453 40.4411C36.7297 40.0038 36.5997 39.425 36.1626 39.1482Z" fill="white"/>
<path d="M62.1796 49.952H63.335C63.8523 49.952 64.2718 49.5325 64.2718 49.0151C64.2718 48.4978 63.8523 48.0782 63.335 48.0782H62.1796C61.6622 48.0782 61.2427 48.4978 61.2427 49.0151C61.2427 49.5325 61.6621 49.952 62.1796 49.952Z" fill="white"/>
<path d="M35.7281 48.9849C35.7281 49.5022 36.1477 49.9217 36.665 49.9217H37.8204C38.3377 49.9217 38.7573 49.5022 38.7573 48.9849C38.7573 48.4675 38.3377 48.048 37.8204 48.048H36.665C36.1477 48.048 35.7281 48.4674 35.7281 48.9849Z" fill="white"/>
<path d="M50.9521 36.8204V35.665C50.9521 35.1477 50.5325 34.7281 50.0152 34.7281C49.4978 34.7281 49.0783 35.1477 49.0783 35.665V36.8204C49.0783 37.3377 49.4978 37.7573 50.0152 37.7573C50.5325 37.7573 50.9521 37.3377 50.9521 36.8204Z" fill="white"/>
<path d="M49.0479 61.1796V62.3349C49.0479 62.8523 49.4675 63.2718 49.9848 63.2718C50.5022 63.2718 50.9217 62.8523 50.9217 62.3349V61.1796C50.9217 60.6622 50.5022 60.2427 49.9848 60.2427C49.4675 60.2427 49.0479 60.6621 49.0479 61.1796Z" fill="white"/>
<path d="M45.304 42.979C44.938 42.6132 44.345 42.6132 43.9789 42.979C43.6131 43.3448 43.6131 43.9381 43.9789 44.304L47.1541 47.4792C46.9108 47.9327 46.7724 48.4505 46.7724 49C46.7724 50.7798 48.2203 52.2276 50 52.2276C51.7797 52.2276 53.2276 50.7798 53.2276 49C53.2276 48.4505 53.0891 47.9327 52.8459 47.4792L59.2526 41.0725C59.6184 40.7066 59.6184 40.1134 59.2526 39.7475C58.8866 39.3817 58.2936 39.3817 57.9275 39.7475L51.5208 46.1542C51.0674 45.9109 50.5496 45.7725 50 45.7725C49.4504 45.7725 48.9326 45.911 48.4792 46.1542L45.304 42.979ZM51.3538 49C51.3538 49.7466 50.7465 50.3538 50 50.3538C49.2535 50.3538 48.6462 49.7466 48.6462 49C48.6462 48.2535 49.2535 47.6463 50 47.6463C50.7465 47.6463 51.3538 48.2535 51.3538 49Z" fill="white"/>
<path d="M38.6712 37.6712C38.8464 37.4969 38.9465 37.2552 38.9465 37.0088C38.9465 36.7624 38.8464 36.5216 38.6712 36.3464C38.4969 36.1722 38.2561 36.0719 38.0088 36.0719C37.7624 36.0719 37.5207 36.1721 37.3464 36.3464C37.1723 36.5207 37.0719 36.7624 37.0719 37.0088C37.0719 37.2561 37.1722 37.4969 37.3464 37.6712C37.5207 37.8453 37.7624 37.9457 38.0088 37.9457C38.2561 37.9457 38.4969 37.8453 38.6712 37.6712Z" fill="white"/>
<path d="M56.4898 27.7992C56.7372 27.7992 56.979 27.6998 57.1531 27.5247C57.3274 27.3504 57.4277 27.1095 57.4277 26.8623C57.4277 26.6159 57.3275 26.3742 57.1531 26.1999C56.979 26.0258 56.7372 25.9254 56.4898 25.9254C56.2434 25.9254 56.0017 26.0257 55.8275 26.1999C55.6533 26.3742 55.5529 26.6159 55.5529 26.8623C55.5529 27.1096 55.6532 27.3504 55.8275 27.5247C56.0017 27.6998 56.2434 27.7992 56.4898 27.7992Z" fill="white"/>
</g>
<defs>
<clipPath id="clip0_1_110">
<rect width="48" height="48" fill="white" transform="translate(26 25)"/>
</clipPath>
</defs>
</svg>
