<svg width="99" height="99" viewBox="0 0 99 99" fill="none" xmlns="http://www.w3.org/2000/svg">
<circle cx="49.5" cy="49.5001" r="46" fill="#2378C9" stroke="#67A9E9" stroke-width="7"/>
<path d="M46.4023 55.6077L37.2911 46.6066C36.6972 46.0127 35.9075 45.6856 35.0677 45.6856C34.4908 45.6856 33.9376 45.8399 33.4552 46.1291V35.2933C33.4552 34.7402 33.3111 34.2203 33.0594 33.7683C33.2252 33.712 33.4 33.6809 33.5792 33.6809C34.4684 33.6809 35.1917 34.4043 35.1917 35.2934V43.2576C35.1917 43.6806 35.5346 44.0235 35.9576 44.0235C36.3806 44.0235 36.7235 43.6806 36.7235 43.2576V35.2934C36.7235 33.5596 35.3131 32.149 33.5792 32.149C32.9955 32.149 32.4331 32.3095 31.9446 32.6076C31.4682 32.3169 30.9089 32.149 30.3111 32.149C28.5773 32.149 27.1667 33.5596 27.1667 35.2941L27.1801 50.3974C27.1807 51.0741 27.4312 52.0293 27.7628 52.6193C27.7682 52.6287 27.7736 52.638 27.7795 52.6472L37.2136 67.875C37.4125 68.2374 37.5919 68.9275 37.5919 69.3341V72.2206C37.5919 72.6436 37.9349 72.9865 38.3579 72.9865C38.7809 72.9865 39.1238 72.6436 39.1238 72.2206V69.3341C39.1238 68.6573 38.8736 67.7018 38.5419 67.1116C38.5366 67.1021 38.5311 67.0929 38.5253 67.0837L29.091 51.8558C28.892 51.4931 28.7123 50.8029 28.7118 50.396L28.6985 35.2933C28.6985 34.4042 29.4218 33.6808 30.3109 33.6808C31.2001 33.6808 31.9233 34.4042 31.9233 35.2933V48.8301C31.9233 48.8492 31.9248 48.8679 31.9262 48.8865C31.9402 49.6728 32.2457 50.4548 32.8443 51.0535L40.1624 58.3715C40.4615 58.6706 40.9465 58.6706 41.2456 58.3715C41.5447 58.0723 41.5447 57.5874 41.2456 57.2883L33.9276 49.9702C33.6231 49.6657 33.4553 49.2607 33.4553 48.8299C33.4553 48.3992 33.6231 47.9943 33.9276 47.6897C34.2321 47.3851 34.6371 47.2174 35.0678 47.2174C35.4985 47.2174 35.9034 47.3852 36.2112 47.693L45.3224 56.6941C46.3356 57.7074 47.1916 59.7739 47.1916 61.2069V72.234C47.1916 72.657 47.5345 73 47.9575 73C48.3805 73 48.7234 72.657 48.7234 72.234V61.2069C48.7234 59.3688 47.7053 56.9108 46.4023 55.6077Z" fill="white"/>
<path d="M69.6891 32.1489C69.0914 32.1489 68.5321 32.3167 68.0557 32.6075C67.5672 32.3093 67.0047 32.1489 66.4211 32.1489C64.6873 32.1489 63.2767 33.5595 63.2767 35.2933V43.2575C63.2767 43.6805 63.6197 44.0234 64.0427 44.0234C64.4657 44.0234 64.8086 43.6805 64.8086 43.2575V35.2933C64.8086 34.4042 65.532 33.6808 66.421 33.6808C66.6003 33.6808 66.7751 33.7118 66.9408 33.7682C66.689 34.2202 66.545 34.7401 66.545 35.2932V46.129C66.0626 45.8399 65.5094 45.6855 64.9325 45.6855C64.0925 45.6855 63.3029 46.0126 62.7124 46.6032L53.5946 55.6109C52.2949 56.9106 51.2767 59.3687 51.2767 61.2067V72.2341C51.2767 72.6571 51.6197 73 52.0427 73C52.4657 73 52.8086 72.6571 52.8086 72.2341V61.2069C52.8086 59.774 53.6645 57.7075 54.6745 56.6975L63.7923 47.6899C64.0968 47.3854 64.5018 47.2176 64.9325 47.2176C65.3631 47.2176 65.768 47.3854 66.0726 47.6899C66.3771 47.9944 66.545 48.3994 66.545 48.8301C66.545 49.2608 66.3771 49.6657 66.0726 49.9703L58.7546 57.2884C58.4555 57.5875 58.4555 58.0725 58.7546 58.3716C59.0538 58.6707 59.5387 58.6707 59.8378 58.3716L67.1558 51.0535C67.7545 50.4548 68.06 49.6729 68.0739 48.8866C68.0752 48.8679 68.0768 48.8491 68.0768 48.8301V35.2934C68.0768 34.4043 68.8002 33.6809 69.6892 33.6809C70.5784 33.6809 71.3017 34.4043 71.3017 35.2926L71.2884 50.3961C71.2881 50.803 71.1082 51.4933 70.9092 51.8559L61.4751 67.0836C61.4694 67.0928 61.4639 67.1022 61.4585 67.1116C61.1268 67.7016 60.8766 68.6571 60.8766 69.3341V72.2206C60.8766 72.6436 61.2196 72.9865 61.6426 72.9865C62.0656 72.9865 62.4085 72.6436 62.4085 72.2206V69.3341C62.4085 68.9273 62.588 68.2373 62.7868 67.875L72.2209 52.6472C72.2266 52.638 72.2321 52.6286 72.2375 52.6192C72.5692 52.0292 72.8197 51.074 72.8203 50.3974L72.8336 35.2933C72.8334 33.5596 71.423 32.1489 69.6891 32.1489Z" fill="white"/>
<path d="M60.9787 30.617C61.4017 30.617 61.7447 30.2741 61.7447 29.8511V25.7659C61.7447 25.3429 61.4017 25 60.9787 25H39.0214C38.5984 25 38.2554 25.3429 38.2554 25.7659V29.851C38.2554 30.274 38.5984 30.6169 39.0214 30.6169H39.2767V32.1488H39.0214C38.5984 32.1488 38.2554 32.4918 38.2554 32.9148V37C38.2554 37.423 38.5984 37.7659 39.0214 37.7659H39.2767V39.2978H39.0214C38.5984 39.2978 38.2554 39.6408 38.2554 40.0638V44.1488C38.2554 44.5718 38.5984 44.9148 39.0214 44.9148H60.9788C61.4018 44.9148 61.7448 44.5718 61.7448 44.1488V40.0638C61.7448 39.6408 61.4018 39.2978 60.9788 39.2978H60.7236V37.7659H60.9788C61.4018 37.7659 61.7448 37.423 61.7448 37V32.9149C61.7448 32.4919 61.4018 32.149 60.9788 32.149H60.7236V30.6171H60.9787V30.617ZM60.2128 43.383H39.7873V40.8298H60.2128V43.383ZM60.2128 36.2341H56.8937C56.4707 36.2341 56.1277 36.577 56.1277 37C56.1277 37.423 56.4707 37.7659 56.8937 37.7659H59.1916V39.2978H40.8085V37.7659H53.8298C54.2528 37.7659 54.5958 37.423 54.5958 37C54.5958 36.577 54.2528 36.2341 53.8298 36.2341H39.7873V33.6809H60.2128V36.2341ZM40.8085 32.1489V30.617H59.1915V32.1489H40.8085ZM60.2128 29.0851H39.7873V26.5319H60.2128V29.0851Z" fill="white"/>
</svg>
