<svg width="99" height="99" viewBox="0 0 99 99" fill="none" xmlns="http://www.w3.org/2000/svg">
<circle cx="49.5" cy="49.5" r="46" fill="#2378C9" stroke="#67A9E9" stroke-width="7"/>
<g clip-path="url(#clip0_1_145)">
<path d="M54.7542 52.6937C56.5803 49.5243 57.1808 45.7954 56.4422 42.2129C55.7035 38.6305 53.677 35.4432 50.7463 33.2545C50.7353 31.9748 50.3896 30.7203 49.7434 29.6157C49.0972 28.5111 48.1731 27.5949 47.063 26.9583C45.6778 26.167 44.1103 25.7506 42.515 25.75H40.985C39.3897 25.7506 37.8222 26.167 36.437 26.9583C35.3263 27.5952 34.4019 28.512 33.7557 29.6173C33.1095 30.7226 32.764 31.9779 32.7537 33.2582C30.5875 34.8815 28.9013 37.061 27.8742 39.5654C26.847 42.0699 26.5172 44.8057 26.9199 47.4825C27.3225 50.1593 28.4425 52.6771 30.1609 54.7686C31.8794 56.86 34.1321 58.4471 36.68 59.3612L35.315 61.75H29C28.4033 61.75 27.831 61.9871 27.409 62.409C26.9871 62.831 26.75 63.4033 26.75 64V70C26.75 70.5967 26.9871 71.169 27.409 71.591C27.831 72.0129 28.4033 72.25 29 72.25H48.5C49.0967 72.25 49.669 72.0129 50.091 71.591C50.5129 71.169 50.75 70.5967 50.75 70V64C50.75 63.4033 50.5129 62.831 50.091 62.409C49.669 61.9871 49.0967 61.75 48.5 61.75H42.185L41.3202 60.2365C41.4635 60.241 41.6067 60.25 41.75 60.25C44.3634 60.2499 46.9308 59.5616 49.1937 58.2542L62.0375 71.098C62.7768 71.8261 63.7739 72.2324 64.8116 72.2285C65.8492 72.2245 66.8432 71.8106 67.577 71.077C68.3107 70.3433 68.7248 69.3493 68.7288 68.3117C68.7329 67.2741 68.3267 66.2769 67.5988 65.5375L54.7542 52.6937ZM37.181 28.2603C38.3397 27.5989 39.6508 27.2507 40.985 27.25H42.515C43.8492 27.2507 45.1603 27.5989 46.319 28.2603C47.6527 29.0176 48.6315 30.2732 49.0404 31.7515C49.4493 33.2298 49.2549 34.8099 48.5 36.145V35.3628C48.5013 34.326 48.1943 33.3123 47.618 32.4505L46.874 31.3337C46.8174 31.2489 46.7441 31.1765 46.6586 31.121C46.573 31.0654 46.4771 31.0279 46.3766 31.0107C46.276 30.9935 46.1731 30.997 46.0739 31.0209C45.9748 31.0449 45.8816 31.0888 45.8 31.15L44.8002 31.9C43.6305 32.7738 42.2103 33.2472 40.7502 33.25H38.75C37.8839 33.2516 37.045 33.5524 36.3753 34.1016C35.7056 34.6508 35.2462 35.4145 35.075 36.2635C34.678 35.6023 34.4174 34.8683 34.3085 34.1048C34.1996 33.3413 34.2446 32.5638 34.4409 31.8179C34.6371 31.0721 34.9807 30.3731 35.4513 29.7621C35.9219 29.1511 36.51 28.6404 37.181 28.2603ZM38.75 44.5375V46.8625L37.5448 47.0635C36.0556 47.316 34.6877 48.0425 33.6447 49.135C32.8699 47.5355 32.5893 45.7414 32.8387 43.9817C33.0881 42.2219 33.8562 40.5765 35.045 39.2552C35.173 40.3749 35.579 41.4447 36.2261 42.3673C36.8732 43.2899 37.7409 44.0359 38.75 44.5375ZM40.25 45.076C41.2365 45.308 42.2635 45.308 43.25 45.076V47.0718C42.7856 47.3091 42.2715 47.4329 41.75 47.4329C41.2285 47.4329 40.7144 47.3091 40.25 47.0718V45.076ZM41.75 43.75C40.3581 43.7484 39.0237 43.1948 38.0394 42.2106C37.0552 41.2263 36.5016 39.8919 36.5 38.5V37C36.5 36.4033 36.7371 35.831 37.159 35.409C37.581 34.9871 38.1533 34.75 38.75 34.75H40.7502C42.5347 34.746 44.2703 34.1675 45.7003 33.1L46.0648 32.8263L46.3693 33.2823C46.7812 33.8978 47.0007 34.622 47 35.3628V38.5C46.9984 39.8919 46.4448 41.2263 45.4606 42.2106C44.4763 43.1948 43.1419 43.7484 41.75 43.75ZM37.7907 48.5455L39.3657 48.283C40.0883 48.7092 40.9119 48.934 41.7507 48.934C42.5896 48.934 43.4132 48.7092 44.1357 48.283L45.7108 48.5455C47.0239 48.7672 48.2125 49.4563 49.0573 50.4857C48.2275 51.6499 47.1316 52.5989 45.8608 53.2537C44.59 53.9085 43.1811 54.2502 41.7515 54.2502C40.3219 54.2502 38.913 53.9085 37.6422 53.2537C36.3714 52.5989 35.2755 51.6499 34.4457 50.4857C35.2901 49.4566 36.4782 48.7675 37.7907 48.5455ZM49.8545 49.1372C48.8115 48.0448 47.4437 47.3182 45.9545 47.0658L44.75 46.8647V44.5397C45.7591 44.0382 46.6268 43.2921 47.2739 42.3695C47.921 41.447 48.327 40.3771 48.455 39.2575C49.6441 40.579 50.4124 42.2249 50.6617 43.9851C50.911 45.7453 50.6299 47.5398 49.8545 49.1395V49.1372ZM48.5 63.25C48.6989 63.25 48.8897 63.329 49.0303 63.4697C49.171 63.6103 49.25 63.8011 49.25 64V70C49.25 70.1989 49.171 70.3897 49.0303 70.5303C48.8897 70.671 48.6989 70.75 48.5 70.75H29C28.8011 70.75 28.6103 70.671 28.4697 70.5303C28.329 70.3897 28.25 70.1989 28.25 70V64C28.25 63.8011 28.329 63.6103 28.4697 63.4697C28.6103 63.329 28.8011 63.25 29 63.25H35.75C35.8819 63.2503 36.0115 63.2157 36.1258 63.1499C36.2401 63.084 36.335 62.9892 36.401 62.875L38.75 58.762L41.099 62.872C41.1646 62.9868 41.2593 63.0822 41.3736 63.1486C41.488 63.215 41.6178 63.25 41.75 63.25H48.5ZM40.4307 58.6795L39.401 56.8795C39.3299 56.7718 39.2333 56.6834 39.1196 56.6223C39.006 56.5612 38.879 56.5292 38.75 56.5292C38.621 56.5292 38.494 56.5612 38.3804 56.6223C38.2667 56.6834 38.1701 56.7718 38.099 56.8795L37.4375 58.036C35.1785 57.2765 33.1612 55.932 31.5908 54.1393C30.0205 52.3466 28.9532 50.1698 28.4976 47.8306C28.0421 45.4913 28.2146 43.0731 28.9975 40.8221C29.7804 38.5712 31.1459 36.5679 32.9548 35.0162C33.1875 35.9875 33.6157 36.901 34.2133 37.7013L34.3235 37.8512C32.8552 39.3197 31.8552 41.1907 31.4502 43.2274C31.0451 45.2642 31.2531 47.3754 32.0479 49.2939C32.8426 51.2125 34.1884 52.8523 35.9151 54.006C37.6418 55.1597 39.6718 55.7755 41.7485 55.7755C43.8252 55.7755 45.8552 55.1597 47.5819 54.006C49.3086 52.8523 50.6544 51.2125 51.4491 49.2939C52.2439 47.3754 52.4519 45.2642 52.0468 43.2274C51.6418 41.1907 50.6418 39.3197 49.1735 37.8512L49.2838 37.7013C49.8813 36.901 50.3095 35.9875 50.5422 35.0162C52.6338 36.8119 54.1252 39.2049 54.816 41.8735C55.5068 44.5421 55.3638 47.3582 54.4062 49.9431C53.4486 52.528 51.7224 54.7576 49.4598 56.3321C47.1971 57.9066 44.5066 58.7504 41.75 58.75C41.3097 58.75 40.868 58.7222 40.4307 58.6795ZM64.8185 70.75C64.4989 70.751 64.1824 70.6886 63.8871 70.5663C63.5919 70.444 63.3239 70.2642 63.0988 70.0375L50.4823 57.4217C51.8072 56.4688 52.9688 55.3072 53.9217 53.9823L66.5375 66.598C66.8776 66.9381 67.1092 67.3714 67.203 67.8431C67.2969 68.3148 67.2488 68.8038 67.0648 69.2482C66.8808 69.6925 66.5692 70.0724 66.1694 70.3397C65.7696 70.607 65.2995 70.7498 64.8185 70.75Z" fill="white"/>
<path d="M59.6577 34.9682L58.2785 39.7937C58.2348 39.9477 58.2415 40.1116 58.2976 40.2615C58.3538 40.4114 58.4563 40.5393 58.5904 40.6267C58.7245 40.7141 58.883 40.7564 59.0428 40.7472C59.2026 40.7381 59.3552 40.6781 59.4785 40.576L63.5 37.225L67.5185 40.5745C67.6417 40.6765 67.7942 40.7364 67.9539 40.7455C68.1136 40.7546 68.2719 40.7125 68.406 40.6252C68.54 40.5379 68.6426 40.4101 68.6988 40.2604C68.755 40.1107 68.7619 39.9469 68.7185 39.793L67.34 34.9667L70.778 31.5287C70.8822 31.4239 70.9531 31.2906 70.9818 31.1456C71.0105 31.0006 70.9957 30.8504 70.9393 30.7137C70.8829 30.5771 70.7874 30.4602 70.6647 30.3777C70.5421 30.2952 70.3978 30.2508 70.25 30.25H66.2142L64.175 26.1647C64.1057 26.0485 64.0074 25.9523 63.8897 25.8854C63.772 25.8186 63.639 25.7834 63.5037 25.7834C63.3684 25.7834 63.2354 25.8186 63.1177 25.8854C63.0001 25.9523 62.9018 26.0485 62.8325 26.1647L60.7872 30.25H56.75C56.6016 30.25 56.4567 30.294 56.3334 30.3764C56.2101 30.4589 56.114 30.576 56.0572 30.713C56.0005 30.85 55.9856 31.0008 56.0145 31.1463C56.0435 31.2917 56.1149 31.4254 56.2197 31.5302L59.6577 34.9682ZM61.25 31.75C61.39 31.7508 61.5274 31.7123 61.6467 31.639C61.766 31.5657 61.8624 31.4605 61.925 31.3352L63.5 28.177L65.0787 31.3352C65.141 31.4599 65.2368 31.5648 65.3554 31.638C65.474 31.7113 65.6106 31.7501 65.75 31.75H68.4395L65.9697 34.2197C65.8752 34.3142 65.8076 34.4322 65.774 34.5616C65.7403 34.6909 65.7419 34.8269 65.7785 34.9555L66.6095 37.8655L63.9845 35.674C63.8496 35.5615 63.6796 35.5 63.5041 35.5C63.3285 35.5 63.1585 35.5615 63.0237 35.674L60.3935 37.8655L61.2245 34.9562C61.2612 34.8276 61.2628 34.6914 61.2292 34.5619C61.1955 34.4324 61.1279 34.3143 61.0332 34.2197L58.5605 31.75H61.25Z" fill="white"/>
<path d="M73.1937 45.7127C73.1369 45.5756 73.0406 45.4584 72.9171 45.3761C72.7936 45.2937 72.6484 45.2498 72.5 45.25H68.4642L66.425 41.1647C66.3557 41.0485 66.2574 40.9523 66.1397 40.8854C66.022 40.8186 65.889 40.7834 65.7537 40.7834C65.6184 40.7834 65.4854 40.8186 65.3677 40.8854C65.2501 40.9523 65.1518 41.0485 65.0825 41.1647L63.0372 45.25H59C58.8516 45.25 58.7067 45.294 58.5834 45.3764C58.4601 45.4589 58.364 45.576 58.3072 45.713C58.2505 45.85 58.2356 46.0008 58.2645 46.1463C58.2935 46.2917 58.3649 46.4254 58.4697 46.5302L61.9077 49.9682L60.5285 54.7937C60.4848 54.9477 60.4915 55.1116 60.5476 55.2615C60.6038 55.4114 60.7063 55.5393 60.8404 55.6267C60.9745 55.7141 61.133 55.7564 61.2928 55.7472C61.4526 55.7381 61.6052 55.6781 61.7285 55.576L65.75 52.225L69.7685 55.5745C69.8917 55.6765 70.0442 55.7364 70.2039 55.7455C70.3636 55.7546 70.5219 55.7125 70.656 55.6252C70.79 55.5379 70.8926 55.4101 70.9488 55.2604C71.005 55.1107 71.0119 54.9469 70.9685 54.793L69.59 49.9667L73.028 46.5287C73.1331 46.4243 73.205 46.2911 73.2345 46.1459C73.264 46.0006 73.2498 45.8499 73.1937 45.7127ZM68.2205 49.2197C68.1259 49.3142 68.0583 49.4322 68.0247 49.5616C67.9911 49.6909 67.9926 49.8269 68.0292 49.9555L68.8602 52.8655L66.2352 50.674C66.1004 50.5615 65.9304 50.5 65.7548 50.5C65.5793 50.5 65.4093 50.5615 65.2745 50.674L62.6442 52.8655L63.4752 49.9562C63.5119 49.8276 63.5136 49.6914 63.4799 49.5619C63.4463 49.4324 63.3786 49.3143 63.284 49.2197L60.8105 46.75H63.5C63.64 46.7508 63.7774 46.7123 63.8967 46.639C64.016 46.5657 64.1124 46.4605 64.175 46.3352L65.75 43.177L67.3287 46.3352C67.391 46.4599 67.4868 46.5648 67.6054 46.638C67.724 46.7113 67.8606 46.7501 68 46.75H70.6895L68.2205 49.2197Z" fill="white"/>
<path d="M47.75 67.75H29.75V69.25H47.75V67.75Z" fill="white"/>
<path d="M46.25 64.75H31.25V66.25H46.25V64.75Z" fill="white"/>
</g>
<defs>
<clipPath id="clip0_1_145">
<rect width="48" height="48" fill="white" transform="translate(26 25)"/>
</clipPath>
</defs>
</svg>
