<svg width="18" height="23" viewBox="0 0 18 23" fill="none" xmlns="http://www.w3.org/2000/svg">
<path d="M8.43585 22.6999C8.5616 22.8874 8.77332 23 9.00001 23C9.22669 23 9.43841 22.8874 9.56416 22.6999C11.1687 20.308 13.5322 17.3539 15.1791 14.3494C16.496 11.9472 17.1362 9.89836 17.1362 8.08594C17.1362 3.62735 13.4863 0 9.00001 0C4.51373 0 0.863846 3.62735 0.863846 8.08594C0.863846 9.89836 1.50403 11.9472 2.82091 14.3494C4.46663 17.3516 6.83457 20.3129 8.43585 22.6999ZM9.00001 1.34766C12.7386 1.34766 15.7801 4.37045 15.7801 8.08594C15.7801 9.66737 15.194 11.5053 13.9883 13.7047C12.5687 16.2944 10.5429 18.9214 9.00001 21.1299C7.45735 18.9217 5.4314 16.2946 4.01168 13.7047C2.80599 11.5053 2.21987 9.66737 2.21987 8.08594C2.21987 4.37045 5.26144 1.34766 9.00001 1.34766Z" fill="white"/>
<path d="M9.00001 12.1289C11.2432 12.1289 13.0681 10.3152 13.0681 8.08594C13.0681 5.85664 11.2432 4.04297 9.00001 4.04297C6.75687 4.04297 4.93193 5.85664 4.93193 8.08594C4.93193 10.3152 6.75687 12.1289 9.00001 12.1289ZM9.00001 5.39062C10.4954 5.39062 11.7121 6.59974 11.7121 8.08594C11.7121 9.57213 10.4954 10.7812 9.00001 10.7812C7.50458 10.7812 6.28796 9.57213 6.28796 8.08594C6.28796 6.59974 7.50458 5.39062 9.00001 5.39062Z" fill="white"/>
</svg>
