<svg width="21" height="16" viewBox="0 0 21 16" fill="none" xmlns="http://www.w3.org/2000/svg">
<g clip-path="url(#clip0_1_16)">
<path d="M19.0312 0.5H1.96876C0.883121 0.5 0 1.34107 0 2.37501V13.625C0 14.659 0.883121 15.5 1.96876 15.5H19.0312C20.1169 15.5 21 14.659 21 13.625V2.37501C21 1.34107 20.1169 0.5 19.0312 0.5ZM19.0312 1.74999C19.1204 1.74999 19.2052 1.76761 19.2828 1.79838L10.5 9.04798L1.71719 1.79838C1.79473 1.76765 1.87956 1.74999 1.96872 1.74999H19.0312ZM19.0312 14.25H1.96876C1.60668 14.25 1.31249 13.9699 1.31249 13.625V3.11901L10.07 10.3474C10.1937 10.4493 10.3468 10.5 10.5 10.5C10.6532 10.5 10.8063 10.4494 10.93 10.3474L19.6875 3.11901V13.625C19.6875 13.9699 19.3933 14.25 19.0312 14.25Z" fill="white"/>
</g>
<defs>
<clipPath id="clip0_1_16">
<rect width="21" height="16" fill="white"/>
</clipPath>
</defs>
</svg>
