<svg width="22" height="22" viewBox="0 0 22 22" fill="none" xmlns="http://www.w3.org/2000/svg">
<path d="M21.9028 4.70671C21.7727 4.49513 21.5347 4.37521 21.2869 4.39669L20.1899 4.49225L21.2385 2.37849C21.3634 2.12674 21.314 1.82342 21.1159 1.62418C20.9176 1.42493 20.6146 1.37414 20.3622 1.49772L17.587 2.85686C15.8724 1.95168 13.7303 2.22037 12.2563 3.5631C11.0261 4.68372 10.3795 6.40707 10.5001 8.12565C7.28474 7.80338 4.5631 5.96299 2.95375 2.98929C2.84697 2.79202 2.64678 2.66299 2.42304 2.64713C2.19887 2.63153 1.98291 2.73088 1.84945 2.91122C0.851289 4.25966 0.78125 6.10852 1.56375 7.62957C1.34805 7.57509 1.11851 7.50136 0.863964 7.41632C0.645898 7.3434 0.405488 7.39011 0.230476 7.5393C0.0554644 7.68848 -0.0286684 7.91841 0.00875738 8.14533C0.31839 10.0225 1.41306 11.4653 3.1423 12.3192C2.91714 12.3976 2.68739 12.4613 2.45377 12.51C2.22165 12.5584 2.0337 12.7282 1.96216 12.9543C1.89062 13.1803 1.94656 13.4273 2.10855 13.6005C3.35383 14.9316 5.15268 15.5867 6.43039 15.901C4.97762 17.0387 3.40939 17.2291 1.13059 17.1508C0.8668 17.1428 0.623769 17.2914 0.512867 17.5305C0.402007 17.7697 0.445019 18.052 0.622179 18.2473C1.57213 19.2944 5.03309 20.4751 8.67134 20.5636C8.81525 20.5671 8.96203 20.569 9.1119 20.569C11.6664 20.5689 15.0425 20.0213 17.4658 17.598C19.3001 15.7639 20.4473 13.6523 20.8757 11.3223C21.2217 9.44041 21.003 7.93341 20.8979 7.20912C20.8902 7.15589 20.8819 7.09938 20.8752 7.04997L21.9014 5.3961C22.0323 5.18512 22.0328 4.91829 21.9028 4.70671ZM19.5994 7.3975C19.7941 8.73916 20.3864 12.8219 16.5381 16.6702C14.3011 18.9071 11.0429 19.3088 8.70323 19.2519C6.70685 19.2034 4.92116 18.8216 3.62694 18.3861C4.15241 18.3217 4.62068 18.2222 5.0627 18.0849C6.28125 17.7061 7.31069 17.0246 8.30233 15.9401C8.46763 15.7593 8.51842 15.5016 8.43416 15.2716C8.34989 15.0416 8.1445 14.8778 7.90156 14.8466C7.27598 14.7665 5.39627 14.45 3.91608 13.429C4.34263 13.2546 4.75401 13.0362 5.14683 12.7757C5.36232 12.6327 5.47378 12.3765 5.43133 12.1214C5.38892 11.8663 5.20067 11.6599 4.95051 11.5943C3.739 11.2767 2.27686 10.566 1.60264 8.97944C2.03319 9.05489 2.50133 9.07315 3.00063 8.96122C3.23206 8.9094 3.41751 8.73666 3.48557 8.50944C3.55368 8.28223 3.49387 8.03593 3.32912 7.86534C2.4902 6.99643 2.17649 5.74423 2.44564 4.67272C3.32711 5.96097 4.44382 7.04516 5.72326 7.84674C7.35998 8.87219 9.27028 9.4389 11.2477 9.48544C11.449 9.48969 11.642 9.40186 11.7701 9.24597C11.8982 9.09012 11.9474 8.884 11.9036 8.68708C11.5634 7.1576 12.0486 5.52711 13.1399 4.53312C14.2717 3.50208 15.9444 3.34568 17.2076 4.15301C17.4004 4.27629 17.6438 4.29009 17.8494 4.18937L19.2047 3.52559L18.4953 4.95563C18.3899 5.16811 18.4074 5.42094 18.5411 5.61683C18.6747 5.81273 18.9034 5.92148 19.14 5.90073L20.0957 5.8175L19.6554 6.52712C19.5077 6.7653 19.5383 6.97662 19.5994 7.3975Z" fill="white"/>
</svg>
