<svg width="22" height="22" viewBox="0 0 22 22" fill="none" xmlns="http://www.w3.org/2000/svg">
<g clip-path="url(#clip0_1_40)">
<path d="M11.1329 17.875C14.3156 17.875 13.1807 15.8602 13.4264 15.2808C13.4227 14.8482 13.4191 14.432 13.4337 14.179C13.6354 14.2358 14.1112 14.4769 15.0938 15.4321C16.6109 16.9629 16.9987 17.875 18.2242 17.875H20.4802C21.1952 17.875 21.5673 17.5789 21.7534 17.3305C21.9331 17.0903 22.1091 16.6687 21.9166 16.0123C21.4133 14.432 18.4782 11.7031 18.2957 11.4153C18.3232 11.3621 18.3672 11.2915 18.3902 11.2548H18.3883C18.9677 10.4894 21.1787 7.17658 21.5041 5.85108C21.505 5.84925 21.5059 5.8465 21.5059 5.84375C21.6819 5.23875 21.5206 4.84642 21.3537 4.62458C21.1026 4.29275 20.7029 4.125 20.163 4.125H17.9071C17.1517 4.125 16.5788 4.50542 16.2892 5.19933C15.8042 6.43225 14.4421 8.96775 13.4209 9.86517C13.3897 8.59375 13.4108 7.623 13.4273 6.90158C13.4603 5.4945 13.5667 4.125 12.1064 4.125H8.56075C7.64592 4.125 6.7705 5.12417 7.71833 6.31033C8.547 7.34983 8.01625 7.92917 8.195 10.813C7.49833 10.0659 6.259 8.04833 5.38267 5.46975C5.137 4.77217 4.76483 4.12592 3.71708 4.12592H1.46117C0.546333 4.12592 0 4.62458 0 5.45967C0 7.33517 4.15158 17.875 11.1329 17.875ZM3.71708 5.50092C3.916 5.50092 3.93617 5.50092 4.08375 5.91983C4.98117 8.56258 6.99417 12.4731 8.4645 12.4731C9.56908 12.4731 9.56908 11.341 9.56908 10.9147L9.56817 7.52125C9.50767 6.39833 9.09883 5.83917 8.83025 5.5L12.0459 5.50367C12.0477 5.51925 12.0276 9.25742 12.0551 10.1631C12.0551 11.4492 13.0762 12.1862 14.6703 10.5728C16.3524 8.67442 17.5157 5.83642 17.5624 5.72092C17.6312 5.55592 17.6907 5.5 17.9071 5.5H20.163H20.1722C20.1712 5.50275 20.1712 5.5055 20.1703 5.50825C19.9641 6.47075 17.9282 9.53792 17.2471 10.4903C17.2361 10.505 17.226 10.5206 17.2159 10.5362C16.9162 11.0257 16.6723 11.5665 17.2572 12.3273H17.2581C17.3112 12.3915 17.4497 12.5418 17.6513 12.7508C18.2783 13.398 20.4288 15.6108 20.6195 16.4908C20.493 16.511 20.3555 16.4963 18.2242 16.5009C17.7705 16.5009 17.4157 15.8226 16.0618 14.4567C14.8445 13.2724 14.0543 12.7884 13.3347 12.7884C11.9377 12.7884 12.0395 13.9223 12.0523 15.2937C12.0569 16.7805 12.0477 16.3103 12.0578 16.4038C11.9762 16.4358 11.7425 16.5 11.1329 16.5C5.31667 16.5 1.529 7.26825 1.38325 5.50367C1.43367 5.49908 2.12758 5.50183 3.71708 5.50092Z" fill="white"/>
</g>
<defs>
<clipPath id="clip0_1_40">
<rect width="22" height="22" fill="white"/>
</clipPath>
</defs>
</svg>
